<!--License: CC Attribution. Made by game-icons.net: https://game-icons.net/-->
<svg width="512px" height="512px" viewBox="0 0 500 500" maxwidth="250" maxheight="250" xmlns="http://www.w3.org/2000/svg">
  <path class="graph-shape" d="M 150 50 A 100 100 0 0 1 250 150 L 150 150 Z" fill="teal"/>
  <polygon class="graph-shape" points="150,150 50,150 150,50" fill="teal"/>
  <polygon class="graph-shape" points="150,250 100,250 100,150 150,150" fill="teal"/>
  <text class="graph-axle-text" x="290" y="140">x</text>
  <line class="graph-axle-line" x1="0" x2="295" y1="150" y2="150"/>
  <polygon class="graph-axle-arrow" points="299,150 290,155 290,145"/>
  <text class="graph-axle-text" x="160" y="10">y</text>
  <line class="graph-axle-line" x1="150" x2="150" y1="5" y2="300"/>
  <polygon class="graph-axle-arrow" points="150,1 145,10 155,10"/>
  <line stroke-width="3px" x1="50" x2="50" y1="145" y2="155"/>
  <line stroke-width="3px" x1="100" x2="100" y1="145" y2="155"/>
  <line stroke-width="3px" x1="200" x2="200" y1="145" y2="155"/>
  <line stroke-width="3px" x1="250" x2="250" y1="145" y2="155"/>
  <line stroke-width="3px" x1="145" x2="155" y1="250" y2="250"/>
  <line stroke-width="3px" x1="145" x2="155" y1="200" y2="200"/>
  <line stroke-width="3px" x1="145" x2="155" y1="100" y2="100"/>
  <line stroke-width="3px" x1="145" x2="155" y1="50" y2="50"/>
  <text class="graph-label r-whole-neg" text-anchor="middle" x="50" y="140">-R</text>
  <text class="graph-label r-half-neg" text-anchor="middle" x="100" y="140">-R/2</text>
  <text class="graph-label r-half-pos" text-anchor="middle" x="200" y="140">R/2</text>
  <text class="graph-label r-whole-pos" text-anchor="middle" x="250" y="140">R</text>
  <text class="graph-label r-whole-neg" text-anchor="start" x="160" y="255">-R</text>
  <text class="graph-label r-half-neg" text-anchor="start" x="160" y="205">-R/2</text>
  <text class="graph-label r-half-pos" text-anchor="start" x="160" y="105">R/2</text>
  <text class="graph-label r-whole-pos" text-anchor="start" x="160" y="55">R</text>
  <line class="graph-axle-line graph-x-dash-line" stroke-dasharray="5,5" x1="-10" x2="-10" y1="0" y2="300" stroke="black"/>
  <line class="graph-axle-line graph-y-dash-line" stroke-dasharray="5,5" x1="0" x2="300" y1="-10" y2="-10" stroke="black"/>
</svg>
